<svg width="256" height="48" viewBox="0 0 256 48" fill="none" xmlns="http://www.w3.org/2000/svg">
<path d="M35.8378 28.6402C35.3198 29.1422 35.0818 29.8682 35.1998 30.5802L36.9778 40.4202C37.1278 41.2542 36.7758 42.0982 36.0778 42.5802C35.3938 43.0802 34.4838 43.1402 33.7378 42.7402L24.8798 38.1202C24.5718 37.9562 24.2298 37.8682 23.8798 37.8582H23.3378C23.1498 37.8862 22.9658 37.9462 22.7978 38.0382L13.9378 42.6802C13.4998 42.9002 13.0038 42.9782 12.5178 42.9002C11.3338 42.6762 10.5438 41.5482 10.7378 40.3582L12.5178 30.5182C12.6358 29.8002 12.3978 29.0702 11.8798 28.5602L4.65775 21.5602C4.05375 20.9742 3.84375 20.0942 4.11975 19.3002C4.38775 18.5082 5.07175 17.9302 5.89775 17.8002L15.8378 16.3582C16.5938 16.2802 17.2578 15.8202 17.5978 15.1402L21.9778 6.16024C22.0818 5.96024 22.2158 5.77624 22.3778 5.62024L22.5578 5.48024C22.6518 5.37624 22.7598 5.29024 22.8798 5.22024L23.0978 5.14024L23.4378 5.00024H24.2798C25.0318 5.07824 25.6938 5.52824 26.0398 6.20024L30.4778 15.1402C30.7978 15.7942 31.4198 16.2482 32.1378 16.3582L42.0778 17.8002C42.9178 17.9202 43.6198 18.5002 43.8978 19.3002C44.1598 20.1022 43.9338 20.9822 43.3178 21.5602L35.8378 28.6402Z" fill="#912C8C"/>
<path d="M87.8378 28.6402C87.3198 29.1422 87.0818 29.8682 87.1998 30.5802L88.9778 40.4202C89.1278 41.2542 88.7758 42.0982 88.0778 42.5802C87.3938 43.0802 86.4838 43.1402 85.7378 42.7402L76.8798 38.1202C76.5718 37.9562 76.2298 37.8682 75.8798 37.8582H75.3378C75.1498 37.8862 74.9658 37.9462 74.7978 38.0382L65.9378 42.6802C65.4998 42.9002 65.0038 42.9782 64.5178 42.9002C63.3338 42.6762 62.5438 41.5482 62.7378 40.3582L64.5178 30.5182C64.6358 29.8002 64.3978 29.0702 63.8798 28.5602L56.6578 21.5602C56.0538 20.9742 55.8438 20.0942 56.1198 19.3002C56.3878 18.5082 57.0718 17.9302 57.8978 17.8002L67.8378 16.3582C68.5938 16.2802 69.2578 15.8202 69.5978 15.1402L73.9778 6.16024C74.0818 5.96024 74.2158 5.77624 74.3778 5.62024L74.5578 5.48024C74.6518 5.37624 74.7598 5.29024 74.8798 5.22024L75.0978 5.14024L75.4378 5.00024H76.2798C77.0318 5.07824 77.6938 5.52824 78.0398 6.20024L82.4778 15.1402C82.7978 15.7942 83.4198 16.2482 84.1378 16.3582L94.0778 17.8002C94.9178 17.9202 95.6198 18.5002 95.8978 19.3002C96.1598 20.1022 95.9338 20.9822 95.3178 21.5602L87.8378 28.6402Z" fill="#912C8C"/>
<path d="M139.838 28.6402C139.32 29.1422 139.082 29.8682 139.2 30.5802L140.978 40.4202C141.128 41.2542 140.776 42.0982 140.078 42.5802C139.394 43.0802 138.484 43.1402 137.738 42.7402L128.88 38.1202C128.572 37.9562 128.23 37.8682 127.88 37.8582H127.338C127.15 37.8862 126.966 37.9462 126.798 38.0382L117.938 42.6802C117.5 42.9002 117.004 42.9782 116.518 42.9002C115.334 42.6762 114.544 41.5482 114.738 40.3582L116.518 30.5182C116.636 29.8002 116.398 29.0702 115.88 28.5602L108.658 21.5602C108.054 20.9742 107.844 20.0942 108.12 19.3002C108.388 18.5082 109.072 17.9302 109.898 17.8002L119.838 16.3582C120.594 16.2802 121.258 15.8202 121.598 15.1402L125.978 6.16024C126.082 5.96024 126.216 5.77624 126.378 5.62024L126.558 5.48024C126.652 5.37624 126.76 5.29024 126.88 5.22024L127.098 5.14024L127.438 5.00024H128.28C129.032 5.07824 129.694 5.52824 130.04 6.20024L134.478 15.1402C134.798 15.7942 135.42 16.2482 136.138 16.3582L146.078 17.8002C146.918 17.9202 147.62 18.5002 147.898 19.3002C148.16 20.1022 147.934 20.9822 147.318 21.5602L139.838 28.6402Z" fill="#912C8C"/>
<path d="M191.838 28.6402C191.32 29.1422 191.082 29.8682 191.2 30.5802L192.978 40.4202C193.128 41.2542 192.776 42.0982 192.078 42.5802C191.394 43.0802 190.484 43.1402 189.738 42.7402L180.88 38.1202C180.572 37.9562 180.23 37.8682 179.88 37.8582H179.338C179.15 37.8862 178.966 37.9462 178.798 38.0382L169.938 42.6802C169.5 42.9002 169.004 42.9782 168.518 42.9002C167.334 42.6762 166.544 41.5482 166.738 40.3582L168.518 30.5182C168.636 29.8002 168.398 29.0702 167.88 28.5602L160.658 21.5602C160.054 20.9742 159.844 20.0942 160.12 19.3002C160.388 18.5082 161.072 17.9302 161.898 17.8002L171.838 16.3582C172.594 16.2802 173.258 15.8202 173.598 15.1402L177.978 6.16024C178.082 5.96024 178.216 5.77624 178.378 5.62024L178.558 5.48024C178.652 5.37624 178.76 5.29024 178.88 5.22024L179.098 5.14024L179.438 5.00024H180.28C181.032 5.07824 181.694 5.52824 182.04 6.20024L186.478 15.1402C186.798 15.7942 187.42 16.2482 188.138 16.3582L198.078 17.8002C198.918 17.9202 199.62 18.5002 199.898 19.3002C200.16 20.1022 199.934 20.9822 199.318 21.5602L191.838 28.6402Z" fill="#912C8C"/>
<path d="M243.837 28.6402C243.319 29.1422 243.081 29.8682 243.199 30.5802L244.977 40.4202C245.127 41.2542 244.775 42.0982 244.077 42.5802C243.393 43.0802 242.483 43.1402 241.737 42.7402L232.879 38.1202C232.571 37.9562 232.229 37.8682 231.879 37.8582H231.337C231.149 37.8862 230.965 37.9462 230.797 38.0382L221.937 42.6802C221.499 42.9002 221.003 42.9782 220.517 42.9002C219.333 42.6762 218.543 41.5482 218.737 40.3582L220.517 30.5182C220.635 29.8002 220.397 29.0702 219.879 28.5602L212.657 21.5602C212.053 20.9742 211.843 20.0942 212.119 19.3002C212.387 18.5082 213.071 17.9302 213.897 17.8002L223.837 16.3582C224.593 16.2802 225.257 15.8202 225.597 15.1402L229.977 6.16024C230.081 5.96024 230.215 5.77624 230.377 5.62024L230.557 5.48024C230.651 5.37624 230.759 5.29024 230.879 5.22024L231.097 5.14024L231.437 5.00024H232.279C233.031 5.07824 233.693 5.52824 234.039 6.20024L238.477 15.1402C238.797 15.7942 239.419 16.2482 240.137 16.3582L250.077 17.8002C250.917 17.9202 251.619 18.5002 251.897 19.3002C252.159 20.1022 251.933 20.9822 251.317 21.5602L243.837 28.6402Z" fill="#912C8C"/>
</svg>
