<svg width="112" height="24" viewBox="0 0 112 24" fill="none" xmlns="http://www.w3.org/2000/svg">
<path d="M10.3073 7.21992C10.9494 5.61924 11.2704 4.81889 11.792 4.70797C11.9291 4.6788 12.0709 4.6788 12.208 4.70797C12.7296 4.81889 13.0506 5.61924 13.6927 7.21992C14.0579 8.1302 14.2404 8.58535 14.582 8.89491C14.6779 8.98174 14.7819 9.05907 14.8926 9.12582C15.2875 9.3638 15.7803 9.40794 16.7661 9.49623C18.4349 9.64568 19.2693 9.7204 19.5241 10.1961C19.5768 10.2947 19.6127 10.4014 19.6302 10.5118C19.7147 11.0448 19.1013 11.6028 17.8745 12.719L17.5338 13.0289C16.9603 13.5507 16.6735 13.8116 16.5076 14.1372C16.4081 14.3325 16.3414 14.5429 16.3102 14.7598C16.2581 15.1215 16.342 15.5 16.51 16.257L16.57 16.5275C16.8712 17.885 17.0218 18.5638 16.8338 18.8974C16.6649 19.1971 16.3539 19.389 16.0103 19.4054C15.6278 19.4236 15.0888 18.9844 14.0108 18.106C13.3006 17.5273 12.9455 17.238 12.5513 17.1249C12.191 17.0216 11.809 17.0216 11.4488 17.1249C11.0545 17.238 10.6994 17.5273 9.98923 18.106C8.91125 18.9844 8.37227 19.4236 7.98975 19.4054C7.64615 19.389 7.3351 19.1971 7.16623 18.8974C6.97824 18.5638 7.12884 17.885 7.43004 16.5275L7.49004 16.257C7.658 15.5 7.74197 15.1215 7.68986 14.7598C7.6586 14.5429 7.59188 14.3325 7.49238 14.1372C7.32651 13.8116 7.03974 13.5507 6.46619 13.0289L6.12552 12.719C4.89873 11.6028 4.28534 11.0448 4.36981 10.5118C4.3873 10.4014 4.42318 10.2947 4.47595 10.1961C4.73075 9.7204 5.56514 9.64568 7.2339 9.49623C8.21968 9.40794 8.71257 9.3638 9.10741 9.12582C9.21816 9.05907 9.32217 8.98174 9.41799 8.89491C9.7596 8.58535 9.94217 8.1302 10.3073 7.21992Z" fill="#F5B60F" stroke="#F5B60F" stroke-width="2"/>
<path d="M32.3073 7.21992C32.9494 5.61924 33.2704 4.81889 33.792 4.70797C33.9291 4.6788 34.0709 4.6788 34.208 4.70797C34.7296 4.81889 35.0506 5.61924 35.6927 7.21992C36.0579 8.1302 36.2404 8.58535 36.582 8.89491C36.6779 8.98174 36.7819 9.05907 36.8926 9.12582C37.2875 9.3638 37.7803 9.40794 38.7661 9.49623C40.4349 9.64568 41.2693 9.7204 41.5241 10.1961C41.5768 10.2947 41.6127 10.4014 41.6302 10.5118C41.7147 11.0448 41.1013 11.6028 39.8745 12.719L39.5338 13.0289C38.9603 13.5507 38.6735 13.8116 38.5076 14.1372C38.4081 14.3325 38.3414 14.5429 38.3102 14.7598C38.2581 15.1215 38.342 15.5 38.51 16.257L38.57 16.5275C38.8712 17.885 39.0218 18.5638 38.8338 18.8974C38.6649 19.1971 38.3539 19.389 38.0103 19.4054C37.6278 19.4236 37.0888 18.9844 36.0108 18.106C35.3006 17.5273 34.9455 17.238 34.5513 17.1249C34.191 17.0216 33.809 17.0216 33.4488 17.1249C33.0545 17.238 32.6994 17.5273 31.9892 18.106C30.9113 18.9844 30.3723 19.4236 29.9897 19.4054C29.6461 19.389 29.3351 19.1971 29.1662 18.8974C28.9782 18.5638 29.1288 17.885 29.43 16.5275L29.49 16.257C29.658 15.5 29.742 15.1215 29.6899 14.7598C29.6586 14.5429 29.5919 14.3325 29.4924 14.1372C29.3265 13.8116 29.0397 13.5507 28.4662 13.0289L28.1255 12.719C26.8987 11.6028 26.2853 11.0448 26.3698 10.5118C26.3873 10.4014 26.4232 10.2947 26.476 10.1961C26.7308 9.7204 27.5651 9.64568 29.2339 9.49623C30.2197 9.40794 30.7126 9.3638 31.1074 9.12582C31.2182 9.05907 31.3222 8.98174 31.418 8.89491C31.7596 8.58535 31.9422 8.1302 32.3073 7.21992Z" fill="#F5B60F" stroke="#F5B60F" stroke-width="2"/>
<path d="M54.3073 7.21992C54.9494 5.61924 55.2704 4.81889 55.792 4.70797C55.9291 4.6788 56.0709 4.6788 56.208 4.70797C56.7296 4.81889 57.0506 5.61924 57.6927 7.21992C58.0579 8.1302 58.2404 8.58535 58.582 8.89491C58.6779 8.98174 58.7819 9.05907 58.8926 9.12582C59.2875 9.3638 59.7803 9.40794 60.7661 9.49623C62.4349 9.64568 63.2693 9.7204 63.5241 10.1961C63.5768 10.2947 63.6127 10.4014 63.6302 10.5118C63.7147 11.0448 63.1013 11.6028 61.8745 12.719L61.5338 13.0289C60.9603 13.5507 60.6735 13.8116 60.5076 14.1372C60.4081 14.3325 60.3414 14.5429 60.3102 14.7598C60.2581 15.1215 60.342 15.5 60.51 16.257L60.57 16.5275C60.8712 17.885 61.0218 18.5638 60.8338 18.8974C60.6649 19.1971 60.3539 19.389 60.0103 19.4054C59.6278 19.4236 59.0888 18.9844 58.0108 18.106C57.3006 17.5273 56.9455 17.238 56.5513 17.1249C56.191 17.0216 55.809 17.0216 55.4488 17.1249C55.0545 17.238 54.6994 17.5273 53.9892 18.106C52.9113 18.9844 52.3723 19.4236 51.9897 19.4054C51.6461 19.389 51.3351 19.1971 51.1662 18.8974C50.9782 18.5638 51.1288 17.885 51.43 16.5275L51.49 16.257C51.658 15.5 51.742 15.1215 51.6899 14.7598C51.6586 14.5429 51.5919 14.3325 51.4924 14.1372C51.3265 13.8116 51.0397 13.5507 50.4662 13.0289L50.1255 12.719C48.8987 11.6028 48.2853 11.0448 48.3698 10.5118C48.3873 10.4014 48.4232 10.2947 48.476 10.1961C48.7308 9.7204 49.5651 9.64568 51.2339 9.49623C52.2197 9.40794 52.7126 9.3638 53.1074 9.12582C53.2182 9.05907 53.3222 8.98174 53.418 8.89491C53.7596 8.58535 53.9422 8.1302 54.3073 7.21992Z" fill="#F5B60F" stroke="#F5B60F" stroke-width="2"/>
<path d="M76.3073 7.21992C76.9494 5.61924 77.2704 4.81889 77.792 4.70797C77.9291 4.6788 78.0709 4.6788 78.208 4.70797C78.7296 4.81889 79.0506 5.61924 79.6927 7.21992C80.0579 8.1302 80.2404 8.58535 80.582 8.89491C80.6779 8.98174 80.7819 9.05907 80.8926 9.12582C81.2875 9.3638 81.7803 9.40794 82.7661 9.49623C84.4349 9.64568 85.2693 9.7204 85.5241 10.1961C85.5768 10.2947 85.6127 10.4014 85.6302 10.5118C85.7147 11.0448 85.1013 11.6028 83.8745 12.719L83.5338 13.0289C82.9603 13.5507 82.6735 13.8116 82.5076 14.1372C82.4081 14.3325 82.3414 14.5429 82.3102 14.7598C82.2581 15.1215 82.342 15.5 82.51 16.257L82.57 16.5275C82.8712 17.885 83.0218 18.5638 82.8338 18.8974C82.6649 19.1971 82.3539 19.389 82.0103 19.4054C81.6278 19.4236 81.0888 18.9844 80.0108 18.106C79.3006 17.5273 78.9455 17.238 78.5513 17.1249C78.191 17.0216 77.809 17.0216 77.4488 17.1249C77.0545 17.238 76.6994 17.5273 75.9892 18.106C74.9113 18.9844 74.3723 19.4236 73.9897 19.4054C73.6461 19.389 73.3351 19.1971 73.1662 18.8974C72.9782 18.5638 73.1288 17.885 73.43 16.5275L73.49 16.257C73.658 15.5 73.742 15.1215 73.6899 14.7598C73.6586 14.5429 73.5919 14.3325 73.4924 14.1372C73.3265 13.8116 73.0397 13.5507 72.4662 13.0289L72.1255 12.719C70.8987 11.6028 70.2853 11.0448 70.3698 10.5118C70.3873 10.4014 70.4232 10.2947 70.476 10.1961C70.7308 9.7204 71.5651 9.64568 73.2339 9.49623C74.2197 9.40794 74.7126 9.3638 75.1074 9.12582C75.2182 9.05907 75.3222 8.98174 75.418 8.89491C75.7596 8.58535 75.9422 8.1302 76.3073 7.21992Z" fill="#F5B60F" stroke="#F5B60F" stroke-width="2"/>
<path d="M98.3073 7.21992C98.9494 5.61924 99.2704 4.81889 99.792 4.70797C99.9291 4.6788 100.071 4.6788 100.208 4.70797C100.73 4.81889 101.051 5.61924 101.693 7.21992C102.058 8.1302 102.24 8.58535 102.582 8.89491C102.678 8.98174 102.782 9.05907 102.893 9.12582C103.287 9.3638 103.78 9.40794 104.766 9.49623C106.435 9.64568 107.269 9.7204 107.524 10.1961C107.577 10.2947 107.613 10.4014 107.63 10.5118C107.715 11.0448 107.101 11.6028 105.875 12.719L105.534 13.0289C104.96 13.5507 104.674 13.8116 104.508 14.1372C104.408 14.3325 104.341 14.5429 104.31 14.7598C104.258 15.1215 104.342 15.5 104.51 16.257L104.57 16.5275C104.871 17.885 105.022 18.5638 104.834 18.8974C104.665 19.1971 104.354 19.389 104.01 19.4054C103.628 19.4236 103.089 18.9844 102.011 18.106C101.301 17.5273 100.945 17.238 100.551 17.1249C100.191 17.0216 99.809 17.0216 99.4488 17.1249C99.0545 17.238 98.6994 17.5273 97.9892 18.106C96.9113 18.9844 96.3723 19.4236 95.9897 19.4054C95.6461 19.389 95.3351 19.1971 95.1662 18.8974C94.9782 18.5638 95.1288 17.885 95.43 16.5275L95.49 16.257C95.658 15.5 95.742 15.1215 95.6899 14.7598C95.6586 14.5429 95.5919 14.3325 95.4924 14.1372C95.3265 13.8116 95.0397 13.5507 94.4662 13.0289L94.1255 12.719C92.8987 11.6028 92.2853 11.0448 92.3698 10.5118C92.3873 10.4014 92.4232 10.2947 92.476 10.1961C92.7308 9.7204 93.5651 9.64568 95.2339 9.49623C96.2197 9.40794 96.7126 9.3638 97.1074 9.12582C97.2182 9.05907 97.3222 8.98174 97.418 8.89491C97.7596 8.58535 97.9422 8.1302 98.3073 7.21992Z" fill="#F5B60F" stroke="#F5B60F" stroke-width="2"/>
</svg>
