<?xml version="1.0" encoding="UTF-8"?>
<svg id="Capa_1" data-name="Capa 1" xmlns="http://www.w3.org/2000/svg" viewBox="0 0 448.72 460.71">
  <defs>
    <style>
      .cls-1 {
        fill: #fff;
      }

      .cls-2 {
        fill: #912c8c;
      }

      .cls-3 {
        fill: #f5b60f;
      }
    </style>
  </defs>
  <g>
    <path class="cls-3" d="m207.7,78v121.33h-64.51c0,35.63,28.89,64.51,64.51,64.51v56.23c-66.68,0-121.33-54.07-121.33-120.75h0v-121.33h121.33Z"/>
    <circle class="cls-1" cx="165.66" cy="138.1" r="11.7"/>
  </g>
  <path class="cls-2" d="m341.92,77.99h-117.13v121.33h64.52c0,2.15-.1,4.28-.31,6.38-.36,3.71-1.04,7.32-2.01,10.81-.3,1.09-.63,2.17-.99,3.24-8.54,25.61-32.73,44.08-61.21,44.08v56.23c45.25,0,84.96-24.9,105.81-61.74,3.36-5.94,6.24-12.18,8.56-18.68,4.51-12.61,6.97-26.18,6.97-40.33v-100.78c-.74-7.07-2.17-13.94-4.2-20.55Zm-75.09,71.8c-6.46,0-11.7-5.24-11.7-11.7s5.24-11.7,11.7-11.7,11.69,5.24,11.69,11.7-5.23,11.7-11.69,11.7Z"/>
  <circle class="cls-3" cx="141.97" cy="47.05" r="38.64"/>
  <path class="cls-3" d="m207.7,6.62v72.45c-6.62,4.2-14.47,6.62-22.89,6.62-7.14,0-13.86-1.74-19.78-4.83-.76-.4-1.51-.81-2.24-1.25-12.41-7.45-20.73-21-20.83-36.5v-.26c0-12.61,5.45-23.95,14.11-31.78,7.61-6.88,17.68-11.06,28.73-11.06,8.42,0,16.26,2.43,22.89,6.62Z"/>
  <circle class="cls-3" cx="117.31" cy="98.12" r="48.36"/>
  <circle class="cls-3" cx="103.32" cy="149.8" r="31.94"/>
  <path class="cls-2" d="m346.62,105.4c-.05-1.47-.14-2.94-.27-4.4-.06-.82-.14-1.65-.22-2.47-.74-7.07-2.17-13.94-4.2-20.55-7.7-24.93-24.18-46.02-45.83-59.64-.27-.17-.55-.34-.82-.5-16.49-10.19-35.94-16.06-56.74-16.06-4.65,0-9.24.29-13.74.87v196.67h64.52c0,2.15-.1,4.28-.31,6.38,31.14-16.45,53.27-47.64,57.12-84.29.08-.8.16-1.59.22-2.4.17-2.04.28-4.08.33-6.15.03-.95.05-1.91.05-2.88,0-1.53-.03-3.05-.1-4.57Zm-79.79,44.39c-6.46,0-11.7-5.24-11.7-11.7s5.24-11.7,11.7-11.7,11.69,5.24,11.69,11.7-5.23,11.7-11.69,11.7Z"/>
  <path class="cls-2" d="m389.66,227.02s-21.39,7.72-45.6,9.37c-2.83.2-5.69.31-8.56.32-16.54.04-33.37-3.38-44.84-14.43l.25-5.12.93-19.75.05-1.13.79-16.62,4.73-99.56.85-17.74,1.92-40.41c.27.16.55.32.82.49,21.64,13.17,38.12,33.56,45.83,57.66,2.04,6.38,3.46,13.03,4.2,19.87.09.79.16,1.59.22,2.39.03,3.91.14,7.72.33,11.46,3.73,72.88,38.08,113.22,38.08,113.22Z"/>
  <circle class="cls-1" cx="266.82" cy="138.1" r="11.7"/>
  <g>
    <path d="m20.95,458.76v-48.72H0v-19.49h63.82v19.49h-20.95v48.72h-21.92Z"/>
    <path d="m68.31,458.76v-68.2h54.56v18.51h-32.64v7.8h25.82v15.59h-25.82v7.8h32.64v18.51h-54.56Z"/>
    <path d="m127.37,458.76l19-68.2h35.56l19,68.2h-21.44l-3.41-13.15h-23.87l-3.41,13.15h-21.44Zm29.36-29.72h15.1l-4.87-19.49h-5.36l-4.87,19.49Z"/>
    <path d="m217.48,458.76v-24.85l-26.31-43.36h10.23l19.97,33.13h.97l19.97-33.13h10.23l-26.31,43.36v24.85h-8.77Z"/>
    <path d="m283.84,460.71c-5.33,0-10.02-1.14-14.08-3.41-4.06-2.27-7.2-5.5-9.4-9.7-2.21-4.19-3.31-9.08-3.31-14.66v-42.38h8.77v42.38c0,6.04,1.64,10.8,4.92,14.27,3.28,3.48,7.65,5.21,13.11,5.21s9.82-1.74,13.11-5.21c3.28-3.47,4.92-8.23,4.92-14.27v-42.38h8.77v42.38c0,5.59-1.1,10.47-3.31,14.66-2.21,4.19-5.34,7.42-9.4,9.7-4.06,2.27-8.75,3.41-14.08,3.41Z"/>
    <path d="m315.13,458.76v-68.2h22.41c6.75,0,12.84,1.5,18.27,4.48,5.42,2.99,9.66,7.08,12.72,12.28,3.05,5.2,4.58,10.98,4.58,17.34s-1.53,12.15-4.58,17.34c-3.05,5.2-7.29,9.29-12.72,12.28-5.42,2.99-11.51,4.48-18.27,4.48h-22.41Zm22.41-8.28c5.26,0,9.92-1.1,13.98-3.31,4.06-2.21,7.21-5.26,9.45-9.16,2.24-3.9,3.36-8.35,3.36-13.35s-1.12-9.45-3.36-13.35c-2.24-3.9-5.39-6.95-9.45-9.16-4.06-2.21-8.72-3.31-13.98-3.31h-13.64v51.64h13.64Z"/>
    <path d="m413.16,460.71c-6.76,0-12.83-1.54-18.22-4.63-5.39-3.08-9.63-7.37-12.72-12.86-3.09-5.49-4.63-11.68-4.63-18.56s1.54-13.07,4.63-18.56c3.08-5.49,7.32-9.78,12.72-12.86,5.39-3.08,11.46-4.63,18.22-4.63s12.83,1.54,18.22,4.63c5.39,3.09,9.63,7.37,12.72,12.86,3.08,5.49,4.63,11.68,4.63,18.56s-1.54,13.07-4.63,18.56c-3.09,5.49-7.32,9.78-12.72,12.86-5.39,3.08-11.46,4.63-18.22,4.63Zm0-8.28c5.13,0,9.74-1.17,13.84-3.51,4.09-2.34,7.28-5.6,9.55-9.79,2.27-4.19,3.41-9.01,3.41-14.47s-1.14-10.28-3.41-14.47c-2.27-4.19-5.46-7.45-9.55-9.79-4.09-2.34-8.7-3.51-13.84-3.51s-9.74,1.17-13.84,3.51c-4.09,2.34-7.28,5.6-9.55,9.79-2.27,4.19-3.41,9.01-3.41,14.47s1.13,10.28,3.41,14.47c2.27,4.19,5.46,7.45,9.55,9.79,4.09,2.34,8.7,3.51,13.84,3.51Z"/>
  </g>
</svg>